<?xml version="1.0" encoding="utf-8"?>
<!-- Generator: Adobe Illustrator 23.0.3, SVG Export Plug-In . SVG Version: 6.00 Build 0)  -->
<svg version="1.1" id="Layer_1" xmlns="http://www.w3.org/2000/svg" xmlns:xlink="http://www.w3.org/1999/xlink" x="0px" y="0px"
	 viewBox="0 0 248.1 120.2" style="enable-background:new 0 0 248.1 120.2;" xml:space="preserve">
<style type="text/css">
	.st0{fill:#96262C;}
	.st1{fill:#C1746E;}
</style>
<g>
	<path class="st0" d="M118.4,76c-0.2,1.6-1,2.3-2.6,2.3H92.5c-5.8,0-8.4-1.3-7.3-8.2l4.2-26.2c1.1-6.9,4-8.2,9.9-8.2h18.9
		c5.8,0,8.3,1.3,7.2,8.2l-1.6,9.7c-1.1,6.9-4,8.2-9.9,8.2H95.8L94.9,67c-0.3,2.2,0.2,2.3,2.1,2.3h20.2c1.6,0,2.2,0.7,1.9,2.3
		L118.4,76z M114.9,50.5l0.6-3.6c0.3-2.3-0.2-2.3-2.1-2.3h-12.5c-1.9,0-2.4,0.1-2.7,2.3l-1,6h14.9C114,52.8,114.6,52.8,114.9,50.5z"
		/>
	<path class="st0" d="M144.5,76c-0.2,1.6-1,2.3-2.6,2.3h-6c-5.8,0-8.4-1.3-7.3-8.2l8.1-51.5c0.3-1.6,1.1-2.3,2.7-2.3h4.7
		c1.6,0,2.2,0.7,1.9,2.3L138.4,67c-0.3,2.2,0.2,2.3,2.1,2.3h2.8c1.6,0,2.2,0.7,1.9,2.3L144.5,76z"/>
	<path class="st0" d="M166.5,76c-0.2,1.6-1,2.3-2.6,2.3h-6c-5.8,0-8.4-1.3-7.3-8.2l8.1-51.5c0.3-1.6,1.1-2.3,2.7-2.3h4.7
		c1.6,0,2.2,0.7,1.9,2.3L160.4,67c-0.3,2.2,0.2,2.3,2.1,2.3h2.8c1.6,0,2.2,0.7,1.9,2.3L166.5,76z"/>
	<path class="st0" d="M198,78.3h-18.9c-5.8,0-8.4-1.3-7.3-8.2l1.6-10.2c1.1-6.9,4-8.2,9.9-8.2h18.1l0.8-4.7c0.3-2.3-0.2-2.3-2.1-2.3
		h-21c-1.6,0-2.2-0.7-1.9-2.3l0.7-4.3c0.2-1.6,1.1-2.3,2.7-2.3h24.2c5.8,0,8.3,1.3,7.2,8.2l-4.2,26.2C206.7,77,203.8,78.3,198,78.3z
		 M199,67l1.1-6.5h-14.9c-1.9,0-2.4,0.1-2.8,2.3l-0.7,4.2c-0.3,2.2,0.2,2.3,2.1,2.3h12.5C198.2,69.4,198.6,69.3,199,67z"/>
	<path class="st0" d="M224.6,76c-0.2,1.6-1,2.3-2.6,2.3h-4.7c-1.6,0-2.3-0.7-2-2.3l5.1-32.1c1.1-6.9,4-8.2,9.9-8.2h15.1
		c1.6,0,2.2,0.7,1.9,2.3l-0.7,4.3c-0.2,1.6-1.1,2.3-2.7,2.3H232c-1.9,0-2.4,0.1-2.7,2.3L224.6,76z"/>
	<g>
		<path class="st0" d="M135.7,110.4h-9c-2.4,0-3.5-0.6-3.1-3.4l0.4-2.6c0.1-0.7,0.5-1,1.1-1h1.9c0.7,0,0.9,0.3,0.8,1l-0.2,1.3
			c-0.1,0.9,0.1,1,0.9,1h6.3c0.8,0,1,0,1.1-1l0.7-4.2c0.1-0.9-0.1-1-0.9-1h-7.7c-2.4,0-3.5-0.6-3-3.4l1.1-6.7
			c0.5-2.9,1.7-3.4,4.1-3.4h9c2.4,0,3.5,0.6,3,3.4l-0.4,2.6c-0.1,0.7-0.5,1-1.1,1H139c-0.7,0-0.9-0.3-0.8-1l0.2-1.3
			c0.1-0.9,0-1-0.8-1h-6.3c-0.8,0-1,0-1.2,1l-0.7,4.2c-0.1,0.9,0.1,1,0.9,1h7.7c2.4,0,3.5,0.6,3,3.4l-1.1,6.7
			C139.4,109.8,138.2,110.4,135.7,110.4z"/>
		<path class="st0" d="M160.5,109.4c-0.1,0.7-0.4,1-1.1,1h-1.9c-0.7,0-0.9-0.3-0.8-1l1.4-8.9h-9.3l-1.4,8.9c-0.1,0.7-0.4,1-1.1,1
			h-1.9c-0.7,0-0.9-0.3-0.8-1l3.4-21.5c0.1-0.7,0.5-1,1.1-1h1.9c0.7,0,0.9,0.3,0.8,1l-1.4,8.9h9.3l1.4-8.9c0.1-0.7,0.5-1,1.1-1h1.9
			c0.7,0,0.9,0.3,0.8,1L160.5,109.4z"/>
		<path class="st0" d="M178.1,110.4h-10c-2.4,0-3.5-0.6-3.1-3.4l2.6-16.6c0.5-2.9,1.7-3.4,4.1-3.4h10c2.4,0,3.5,0.6,3,3.4l-2.6,16.6
			C181.7,109.8,180.5,110.4,178.1,110.4z M178.5,105.7l2.2-14.1c0.1-0.9,0-1-0.8-1h-7.3c-0.8,0-1,0-1.2,1l-2.2,14
			c-0.1,0.9,0.1,1,0.9,1h7.3C178.3,106.6,178.4,106.6,178.5,105.7z"/>
		<path class="st0" d="M200.6,109.4c-0.1,0.7-0.4,1-1.1,1h-12.7c-0.7,0-0.9-0.3-0.8-1l3.4-21.5c0.1-0.7,0.5-1,1.1-1h12.7
			c0.7,0,0.9,0.3,0.8,1l-0.3,1.8c-0.1,0.7-0.4,1-1.1,1h-9.7l-1,6.1h7.6c0.7,0,0.9,0.3,0.8,1l-0.3,1.8c-0.1,0.7-0.4,1-1.1,1h-7.6
			l-1,6.1h9.7c0.7,0,0.9,0.3,0.8,1L200.6,109.4z"/>
		<path class="st0" d="M216.1,110.4h-9c-2.4,0-3.5-0.6-3.1-3.4l0.4-2.6c0.1-0.7,0.5-1,1.1-1h1.9c0.7,0,0.9,0.3,0.8,1l-0.2,1.3
			c-0.1,0.9,0.1,1,0.9,1h6.3c0.8,0,1,0,1.1-1l0.7-4.2c0.1-0.9-0.1-1-0.9-1h-7.7c-2.4,0-3.5-0.6-3-3.4l1.1-6.7
			c0.5-2.9,1.7-3.4,4.1-3.4h9c2.4,0,3.5,0.6,3,3.4l-0.4,2.6c-0.1,0.7-0.5,1-1.1,1h-1.9c-0.7,0-0.9-0.3-0.8-1l0.2-1.3
			c0.1-0.9,0-1-0.8-1h-6.3c-0.8,0-1,0-1.2,1l-0.7,4.2c-0.1,0.9,0.1,1,0.9,1h7.7c2.4,0,3.5,0.6,3,3.4l-1.1,6.7
			C219.7,109.8,218.5,110.4,216.1,110.4z"/>
	</g>
	<g>
		<path class="st0" d="M38.6,78.5H12.4c-7.1,0-10.2-1.6-8.9-10L4.7,61C5,59,6,58.2,8,58.2h5.7c2,0,2.7,0.9,2.4,2.8l-0.7,3.8
			c-0.4,2.7,0.2,2.8,2.6,2.8h18.5c2.4,0,2.9-0.1,3.3-2.8l2-12.1c0.4-2.7-0.2-2.8-2.6-2.8H16.7c-7.1,0-10.1-1.6-8.8-10L11,20.2
			c1.3-8.4,4.9-10,12-10h26.3c7.1,0,10.1,1.6,8.8,10L57,27.6c-0.4,2-1.3,2.8-3.3,2.8H48c-2,0-2.7-0.9-2.4-2.8l0.6-3.8
			c0.4-2.7-0.1-2.8-2.5-2.8H25.3c-2.4,0-3,0.1-3.4,2.8l-2,12.2c-0.4,2.7,0.2,2.8,2.6,2.8h22.5c7.1,0,10.1,1.6,8.8,10l-3.1,19.5
			C49.2,76.9,45.7,78.5,38.6,78.5z"/>
	</g>
	<path class="st0" d="M78.3,76c-0.2,1.6-1,2.3-2.6,2.3h-6c-5.8,0-8.4-1.3-7.3-8.2l4-25.5h-4.7c-1.6,0-2.2-0.7-1.9-2.3l0.7-4.3
		c0.2-1.6,1.1-2.3,2.7-2.3h4.7L70,22c0.3-1.6,1.1-2.3,2.7-2.3h4.7c1.6,0,2.2,0.7,1.9,2.3l-2.1,13.7h5.2c1.6,0,2.2,0.7,1.9,2.3
		l-0.7,4.3c-0.2,1.6-1.1,2.3-2.7,2.3h-5.2L72.2,67c-0.3,2.2,0.2,2.3,2.1,2.3h2.8c1.6,0,2.2,0.7,1.9,2.3L78.3,76z"/>
	<path class="st1" d="M109.9,110.4H0.7l2.8-18.6C3.9,89,6.2,87,8.9,87h109.4l-2.7,18.4C115.2,108.3,112.8,110.4,109.9,110.4z"/>
</g>
</svg>
